  0
SECTION
  2
HEADER
  9
$ACADVER
  1
AC1009
  9
$INSBASE
 10
0.000000
 20
0.000000
  9
$LIMMIN
 10
-500.000000
 20
-500.000000
  9
$LIMMAX
 10
1000.000000
 20
1000.000000
  9
$EXTMIN
 10
-500.000000
 20
-500.000000
  9
$EXTMAX
 10
1000.000000
 20
1000.000000
  9
$ATTMODE
 70
0
  9
$LUNITS
 70
2
  9
$LUPREC
 70
4
  9
$THICKNESS
 40
0.264160
  0
ENDSEC
  0
SECTION
  2
TABLES
  0
TABLE
  2
LTYPE
 70
1
  0
LTYPE
  3
Solid Line
  2
CONTINUOUS
 70
0
 72
65
 73
0
 40
0.000000
  0
ENDTAB
  0
TABLE
  2
LAYER
 70
1
  0
LAYER
  2
BG_SILKSCREEN_TOP
 70
0
 62
7
  6
CONTINUOUS
  0
ENDTAB
  0
TABLE
  2
STYLE
 70
1
  0
STYLE
  2
STANDARD
 70
0
 40
0.000000
 41
1.000000
 50
0.000000
 71
0
 42
0.200000
  3
txt
  0
ENDTAB
  0
ENDSEC
  0
SECTION
  2
BLOCKS
  0
BLOCK
  8
0
  2
FIGURE_CIRCLE
 70
0
 10
0.000000
 20
0.000000
  0
CIRCLE
  8
0
 10
0.000000
 20
0.000000
 40
0.500000
  0
ENDBLK
  0
BLOCK
  8
0
  2
FIGURE_SQUARE
 70
0
 10
0.000000
 20
0.000000
  0
POLYLINE
  8
0
 66
1
 70
1
 40
0.000000
 41
0.000000
 39
0.000000
  0
VERTEX
  8
0
 10
-0.500000
 20
-0.500000
 40
0.000000
 41
0.000000
 42
0.000000
  0
VERTEX
  8
0
 10
-0.500000
 20
0.500000
 40
0.000000
 41
0.000000
 42
0.000000
  0
VERTEX
  8
0
 10
0.500000
 20
0.500000
 40
0.000000
 41
0.000000
 42
0.000000
  0
VERTEX
  8
0
 10
0.500000
 20
-0.500000
 40
0.000000
 41
0.000000
 42
0.000000
  0
SEQEND
  0
ENDBLK
  0
BLOCK
  8
0
  2
FIGURE_HEX
 70
0
 10
0.000000
 20
0.000000
  0
POLYLINE
  8
0
 66
1
 70
1
 40
0.000000
 41
0.000000
 39
0.000000
  0
VERTEX
  8
0
 10
-0.500000
 20
0.000000
 40
0.000000
 41
0.000000
 42
0.000000
  0
VERTEX
  8
0
 10
-0.250000
 20
0.500000
 40
0.000000
 41
0.000000
 42
0.000000
  0
VERTEX
  8
0
 10
0.250000
 20
0.500000
 40
0.000000
 41
0.000000
 42
0.000000
  0
VERTEX
  8
0
 10
0.500000
 20
0.000000
 40
0.000000
 41
0.000000
 42
0.000000
  0
VERTEX
  8
0
 10
0.250000
 20
-0.500000
 40
0.000000
 41
0.000000
 42
0.000000
  0
VERTEX
  8
0
 10
-0.250000
 20
-0.500000
 40
0.000000
 41
0.000000
 42
0.000000
  0
SEQEND
  0
ENDBLK
  0
BLOCK
  8
0
  2
FIGURE_OCT
 70
0
 10
0.000000
 20
0.000000
  0
POLYLINE
  8
0
 66
1
 70
1
 40
0.000000
 41
0.000000
 39
0.000000
  0
VERTEX
  8
0
 10
-0.500000
 20
-0.207100
 40
0.000000
 41
0.000000
 42
0.000000
  0
VERTEX
  8
0
 10
-0.500000
 20
0.207100
 40
0.000000
 41
0.000000
 42
0.000000
  0
VERTEX
  8
0
 10
-0.207100
 20
0.500000
 40
0.000000
 41
0.000000
 42
0.000000
  0
VERTEX
  8
0
 10
0.207100
 20
0.500000
 40
0.000000
 41
0.000000
 42
0.000000
  0
VERTEX
  8
0
 10
0.500000
 20
0.207100
 40
0.000000
 41
0.000000
 42
0.000000
  0
VERTEX
  8
0
 10
0.500000
 20
-0.207100
 40
0.000000
 41
0.000000
 42
0.000000
  0
VERTEX
  8
0
 10
0.207100
 20
-0.500000
 40
0.000000
 41
0.000000
 42
0.000000
  0
VERTEX
  8
0
 10
-0.207100
 20
-0.500000
 40
0.000000
 41
0.000000
 42
0.000000
  0
SEQEND
  0
ENDBLK
  0
BLOCK
  8
0
  2
FIGURE_OBLONG
 70
0
 10
0.000000
 20
0.000000
  0
POLYLINE
  8
0
 66
1
 70
1
 40
0.000000
 41
0.000000
 39
0.000000
  0
VERTEX
  8
0
 10
-0.500000
 20
-0.125000
 40
0.000000
 41
0.000000
 42
0.000000
  0
VERTEX
  8
0
 10
-0.500000
 20
0.125000
 40
0.000000
 41
0.000000
 42
0.000000
  0
VERTEX
  8
0
 10
-0.416000
 20
0.375000
 40
0.000000
 41
0.000000
 42
0.000000
  0
VERTEX
  8
0
 10
-0.250000
 20
0.500000
 40
0.000000
 41
0.000000
 42
0.000000
  0
VERTEX
  8
0
 10
0.250000
 20
0.500000
 40
0.000000
 41
0.000000
 42
0.000000
  0
VERTEX
  8
0
 10
0.416000
 20
0.375000
 40
0.000000
 41
0.000000
 42
0.000000
  0
VERTEX
  8
0
 10
0.500000
 20
0.125000
 40
0.000000
 41
0.000000
 42
0.000000
  0
VERTEX
  8
0
 10
0.500000
 20
-0.125000
 40
0.000000
 41
0.000000
 42
0.000000
  0
VERTEX
  8
0
 10
0.416000
 20
-0.375000
 40
0.000000
 41
0.000000
 42
0.000000
  0
VERTEX
  8
0
 10
0.250000
 20
-0.500000
 40
0.000000
 41
0.000000
 42
0.000000
  0
VERTEX
  8
0
 10
-0.250000
 20
-0.500000
 40
0.000000
 41
0.000000
 42
0.000000
  0
VERTEX
  8
0
 10
-0.416000
 20
-0.375000
 40
0.000000
 41
0.000000
 42
0.000000
  0
SEQEND
  0
ENDBLK
  0
BLOCK
  8
0
  2
FIGURE_TRI
 70
0
 10
0.000000
 20
0.000000
  0
POLYLINE
  8
0
 66
1
 70
1
 40
0.000000
 41
0.000000
 39
0.000000
  0
VERTEX
  8
0
 10
-0.500000
 20
-0.500000
 40
0.000000
 41
0.000000
 42
0.000000
  0
VERTEX
  8
0
 10
0.000000
 20
0.500000
 40
0.000000
 41
0.000000
 42
0.000000
  0
VERTEX
  8
0
 10
0.500000
 20
-0.500000
 40
0.000000
 41
0.000000
 42
0.000000
  0
SEQEND
  0
ENDBLK
  0
BLOCK
  8
0
  2
FIGURE_CROSS
 70
0
 10
0.000000
 20
0.000000
  0
POLYLINE
  8
0
 66
1
 70
0
 40
0.000000
 41
0.000000
 39
0.000000
  0
VERTEX
  8
0
 10
-0.500000
 20
0.000000
 40
0.000000
 41
0.000000
 42
0.000000
  0
VERTEX
  8
0
 10
0.500000
 20
0.000000
 40
0.000000
 41
0.000000
 42
0.000000
  0
SEQEND
  0
POLYLINE
  8
0
 66
1
 70
0
 40
0.000000
 41
0.000000
 39
0.000000
  0
VERTEX
  8
0
 10
0.000000
 20
0.500000
 40
0.000000
 41
0.000000
 42
0.000000
  0
VERTEX
  8
0
 10
0.000000
 20
-0.500000
 40
0.000000
 41
0.000000
 42
0.000000
  0
SEQEND
  0
ENDBLK
  0
BLOCK
  8
0
  2
FIGURE_DIAMOND
 70
0
 10
0.000000
 20
0.000000
  0
POLYLINE
  8
0
 66
1
 70
1
 40
0.000000
 41
0.000000
 39
0.000000
  0
VERTEX
  8
0
 10
-0.500000
 20
0.000000
 40
0.000000
 41
0.000000
 42
0.000000
  0
VERTEX
  8
0
 10
0.000000
 20
0.500000
 40
0.000000
 41
0.000000
 42
0.000000
  0
VERTEX
  8
0
 10
0.500000
 20
0.000000
 40
0.000000
 41
0.000000
 42
0.000000
  0
VERTEX
  8
0
 10
0.000000
 20
-0.500000
 40
0.000000
 41
0.000000
 42
0.000000
  0
SEQEND
  0
ENDBLK
  0
ENDSEC
  0
SECTION
  2
ENTITIES
  0
POLYLINE
  8
BG_SILKSCREEN_TOP
 66
1
 70
1
 40
0.000000
 41
0.000000
 39
0.000000
  0
VERTEX
  8
BG_SILKSCREEN_TOP
 10
-0.600000
 20
-0.150000
 40
0.000000
 41
0.000000
 42
0.000000
  0
VERTEX
  8
BG_SILKSCREEN_TOP
 10
-0.600000
 20
-1.050000
 40
0.000000
 41
0.000000
 42
0.000000
  0
VERTEX
  8
BG_SILKSCREEN_TOP
 10
-0.330000
 20
-1.050000
 40
0.000000
 41
0.000000
 42
0.000000
  0
VERTEX
  8
BG_SILKSCREEN_TOP
 10
-0.330000
 20
-2.550000
 40
0.000000
 41
0.000000
 42
0.000000
  0
VERTEX
  8
BG_SILKSCREEN_TOP
 10
-0.300000
 20
-2.550000
 40
0.000000
 41
0.000000
 42
0.000000
  0
VERTEX
  8
BG_SILKSCREEN_TOP
 10
-0.150000
 20
-2.550000
 40
0.000000
 41
0.000000
 42
0.000000
  0
VERTEX
  8
BG_SILKSCREEN_TOP
 10
-0.150000
 20
-3.000000
 40
0.000000
 41
0.000000
 42
0.000000
  0
VERTEX
  8
BG_SILKSCREEN_TOP
 10
0.150000
 20
-3.000000
 40
0.000000
 41
0.000000
 42
0.000000
  0
VERTEX
  8
BG_SILKSCREEN_TOP
 10
0.150000
 20
-2.550000
 40
0.000000
 41
0.000000
 42
0.000000
  0
VERTEX
  8
BG_SILKSCREEN_TOP
 10
0.300000
 20
-2.550000
 40
0.000000
 41
0.000000
 42
0.000000
  0
VERTEX
  8
BG_SILKSCREEN_TOP
 10
0.330000
 20
-2.550000
 40
0.000000
 41
0.000000
 42
0.000000
  0
VERTEX
  8
BG_SILKSCREEN_TOP
 10
0.330000
 20
-1.050000
 40
0.000000
 41
0.000000
 42
0.000000
  0
VERTEX
  8
BG_SILKSCREEN_TOP
 10
0.600000
 20
-1.050000
 40
0.000000
 41
0.000000
 42
0.000000
  0
VERTEX
  8
BG_SILKSCREEN_TOP
 10
0.600000
 20
-0.150000
 40
0.000000
 41
0.000000
 42
0.000000
  0
VERTEX
  8
BG_SILKSCREEN_TOP
 10
0.420000
 20
-0.150000
 40
0.000000
 41
0.000000
 42
0.000000
  0
VERTEX
  8
BG_SILKSCREEN_TOP
 10
0.420000
 20
2.850000
 40
0.000000
 41
0.000000
 42
0.000000
  0
VERTEX
  8
BG_SILKSCREEN_TOP
 10
0.180000
 20
2.850000
 40
0.000000
 41
0.000000
 42
0.000000
  0
VERTEX
  8
BG_SILKSCREEN_TOP
 10
0.180000
 20
3.000000
 40
0.000000
 41
0.000000
 42
0.000000
  0
VERTEX
  8
BG_SILKSCREEN_TOP
 10
-0.180000
 20
3.000000
 40
0.000000
 41
0.000000
 42
0.000000
  0
VERTEX
  8
BG_SILKSCREEN_TOP
 10
-0.180000
 20
2.850000
 40
0.000000
 41
0.000000
 42
0.000000
  0
VERTEX
  8
BG_SILKSCREEN_TOP
 10
-0.420000
 20
2.850000
 40
0.000000
 41
0.000000
 42
0.000000
  0
VERTEX
  8
BG_SILKSCREEN_TOP
 10
-0.420000
 20
-0.150000
 40
0.000000
 41
0.000000
 42
0.000000
  0
SEQEND
  0
ENDSEC
  0
EOF
